<?xml version="1.0" standalone="no"?>
<!DOCTYPE svg PUBLIC "-//W3C//DTD SVG 20010904//EN"
 "http://www.w3.org/TR/2001/REC-SVG-20010904/DTD/svg10.dtd">
<svg version="1.0" xmlns="http://www.w3.org/2000/svg"
 width="1024.000000pt" height="1024.000000pt" viewBox="0 0 1024.000000 1024.000000"
 preserveAspectRatio="xMidYMid meet">

<g transform="translate(0.000000,1024.000000) scale(0.100000,-0.100000)"
fill="#000000" stroke="none">
<path d="M0 5120 l0 -5120 5120 0 5120 0 0 5120 0 5120 -5120 0 -5120 0 0
-5120z m3798 1753 c91 -252 225 -614 322 -873 67 -179 178 -473 245 -655 68
-181 173 -463 235 -625 62 -162 145 -383 185 -490 112 -299 155 -382 217 -420
43 -26 126 -27 176 -1 97 49 158 151 272 451 35 91 127 332 206 535 271 706
497 1302 640 1694 79 217 146 396 148 398 1 2 47 4 101 6 l98 2 130 -350 c71
-192 269 -723 439 -1180 171 -456 350 -937 399 -1067 48 -131 102 -266 118
-302 65 -135 166 -210 302 -225 37 -4 70 -9 72 -12 3 -2 7 -31 11 -64 l6 -60
-612 0 c-337 0 -624 -3 -638 -7 -25 -7 -25 -7 -24 60 l1 67 79 6 c135 10 212
47 254 122 34 59 31 127 -10 242 -44 123 -170 432 -216 533 l-38 82 -511 0
c-303 0 -515 -4 -521 -9 -5 -5 -27 -11 -48 -13 -39 -3 -40 -4 -58 -63 -10 -33
-19 -71 -20 -85 -1 -14 -34 -111 -74 -217 -41 -105 -79 -212 -85 -238 -25 -99
9 -197 96 -273 55 -48 115 -70 213 -79 l72 -6 0 -66 0 -66 -247 6 c-318 8
-1222 8 -1511 0 l-222 -6 0 66 0 66 88 5 c235 14 310 129 231 355 -44 124
-195 495 -230 565 l-29 58 -510 0 c-328 0 -511 -4 -515 -10 -3 -5 -25 -10 -49
-10 l-43 0 -18 -66 c-10 -37 -19 -81 -21 -98 -1 -17 -37 -121 -80 -231 -72
-185 -78 -206 -78 -275 -1 -84 12 -115 71 -181 65 -71 157 -109 268 -109 l45
0 0 -67 0 -66 -277 5 c-153 3 -383 3 -511 -1 l-232 -6 0 67 0 67 38 6 c156 24
201 43 265 114 53 59 75 108 233 516 79 204 200 516 269 695 235 604 367 953
520 1375 l153 420 43 6 c24 3 69 7 101 7 53 2 57 0 66 -25z"/>
<path d="M3521 6262 c-1 -12 -127 -356 -308 -837 -41 -110 -104 -271 -139
-358 -35 -86 -64 -159 -64 -162 0 -3 214 -5 476 -5 314 0 473 3 469 10 -4 6 8
10 29 10 20 0 36 1 36 3 0 2 -36 97 -81 212 -111 289 -236 629 -325 885 -81
232 -92 262 -93 242z"/>
<path d="M6370 6262 c0 -27 -351 -968 -449 -1205 -34 -81 -61 -149 -61 -152 0
-3 214 -5 475 -5 310 0 475 3 475 10 0 6 14 10 31 10 36 0 40 -18 -48 215
-120 315 -184 489 -295 800 -109 305 -127 353 -128 327z"/>
</g>
</svg>
